<mxfile host="app.diagrams.net" modified="2024-01-16T10:00:00.000Z" agent="5.0" version="22.1.16" type="device">
  <diagram name="AWS Production" id="aws-prod">
    <mxGraphModel dx="1200" dy="800" grid="1" gridSize="10" guides="1" tooltips="1" connect="1" arrows="1" fold="1" page="1" pageScale="1" pageWidth="827" pageHeight="1169" math="0" shadow="0">
      <root>
        <mxCell id="0" />
        <mxCell id="1" parent="0" />
        
        <mxCell id="2" value="R-Type 2 - AWS Production Architecture" style="text;html=1;strokeColor=none;fillColor=none;align=center;verticalAlign=middle;whiteSpace=wrap;rounded=0;fontSize=16;fontStyle=1;" vertex="1" parent="1">
          <mxGeometry x="200" y="40" width="400" height="30" as="geometry" />
        </mxCell>
        
        <mxCell id="3" value="Internet" style="ellipse;whiteSpace=wrap;html=1;fillColor=#f0f0f0;strokeColor=#666666;" vertex="1" parent="1">
          <mxGeometry x="80" y="120" width="80" height="50" as="geometry" />
        </mxCell>
        
        <mxCell id="4" value="Route 53&#xa;DNS" style="rounded=1;whiteSpace=wrap;html=1;fillColor=#fff2cc;strokeColor=#d6b656;" vertex="1" parent="1">
          <mxGeometry x="220" y="120" width="80" height="50" as="geometry" />
        </mxCell>
        
        <mxCell id="5" value="CloudFront&#xa;CDN" style="rounded=1;whiteSpace=wrap;html=1;fillColor=#dae8fc;strokeColor=#6c8ebf;" vertex="1" parent="1">
          <mxGeometry x="360" y="120" width="80" height="50" as="geometry" />
        </mxCell>
        
        <mxCell id="6" value="S3 Bucket&#xa;Static Site" style="rounded=1;whiteSpace=wrap;html=1;fillColor=#d5e8d4;strokeColor=#82b366;" vertex="1" parent="1">
          <mxGeometry x="500" y="120" width="80" height="50" as="geometry" />
        </mxCell>
        
        <mxCell id="7" value="CloudWatch&#xa;Monitoring" style="rounded=1;whiteSpace=wrap;html=1;fillColor=#fff2cc;strokeColor=#d6b656;" vertex="1" parent="1">
          <mxGeometry x="280" y="220" width="80" height="50" as="geometry" />
        </mxCell>
        
        <mxCell id="8" value="SNS&#xa;Alerts" style="rounded=1;whiteSpace=wrap;html=1;fillColor=#f8cecc;strokeColor=#b85450;" vertex="1" parent="1">
          <mxGeometry x="420" y="220" width="80" height="50" as="geometry" />
        </mxCell>
        
        <mxCell id="9" style="edgeStyle=orthogonalEdgeStyle;rounded=0;orthogonalLoop=1;jettySize=auto;html=1;exitX=1;exitY=0.5;exitDx=0;exitDy=0;entryX=0;entryY=0.5;entryDx=0;entryDy=0;" edge="1" parent="1" source="3" target="4">
          <mxGeometry relative="1" as="geometry" />
        </mxCell>
        
        <mxCell id="10" style="edgeStyle=orthogonalEdgeStyle;rounded=0;orthogonalLoop=1;jettySize=auto;html=1;exitX=1;exitY=0.5;exitDx=0;exitDy=0;entryX=0;entryY=0.5;entryDx=0;entryDy=0;" edge="1" parent="1" source="4" target="5">
          <mxGeometry relative="1" as="geometry" />
        </mxCell>
        
        <mxCell id="11" style="edgeStyle=orthogonalEdgeStyle;rounded=0;orthogonalLoop=1;jettySize=auto;html=1;exitX=1;exitY=0.5;exitDx=0;exitDy=0;entryX=0;entryY=0.5;entryDx=0;entryDy=0;" edge="1" parent="1" source="5" target="6">
          <mxGeometry relative="1" as="geometry" />
        </mxCell>
        
        <mxCell id="12" style="edgeStyle=orthogonalEdgeStyle;rounded=0;orthogonalLoop=1;jettySize=auto;html=1;exitX=0.5;exitY=1;exitDx=0;exitDy=0;entryX=0.5;entryY=0;entryDx=0;entryDy=0;strokeStyle=dashed;" edge="1" parent="1" source="5" target="7">
          <mxGeometry relative="1" as="geometry" />
        </mxCell>
        
        <mxCell id="13" style="edgeStyle=orthogonalEdgeStyle;rounded=0;orthogonalLoop=1;jettySize=auto;html=1;exitX=1;exitY=0.5;exitDx=0;exitDy=0;entryX=0;entryY=0.5;entryDx=0;entryDy=0;strokeStyle=dashed;" edge="1" parent="1" source="7" target="8">
          <mxGeometry relative="1" as="geometry" />
        </mxCell>
        
        <mxCell id="14" value="Production Environment&#xa;&#xa;Cost: $1.67/month&#xa;- S3: $0.02&#xa;- CloudFront: $0.85&#xa;- CloudWatch: $0.30&#xa;- Route 53: $0.50&#xa;&#xa;Performance:&#xa;- Cache Hit: >95%&#xa;- Error Rate: <1%&#xa;- Latency: <100ms&#xa;&#xa;Security:&#xa;- HTTPS Only&#xa;- WAF Protection&#xa;- Encryption AES-256" style="text;html=1;strokeColor=#666666;fillColor=#f0f0f0;align=left;verticalAlign=top;whiteSpace=wrap;rounded=1;fontSize=10;" vertex="1" parent="1">
          <mxGeometry x="80" y="320" width="200" height="180" as="geometry" />
        </mxCell>
        
        <mxCell id="15" value="High Availability&#xa;&#xa;- Multi-AZ S3&#xa;- Global CloudFront&#xa;- 99.99% SLA&#xa;- Auto failover&#xa;- Health monitoring&#xa;&#xa;Compliance:&#xa;- GDPR compliant&#xa;- SOC 2 Type II&#xa;- ISO 27001&#xa;- Audit trails&#xa;&#xa;Backup:&#xa;- S3 versioning&#xa;- Cross-region backup" style="text;html=1;strokeColor=#82b366;fillColor=#d5e8d4;align=left;verticalAlign=top;whiteSpace=wrap;rounded=1;fontSize=10;" vertex="1" parent="1">
          <mxGeometry x="320" y="320" width="180" height="180" as="geometry" />
        </mxCell>
        
        <mxCell id="16" value="Deployment Pipeline&#xa;&#xa;1. Code commit&#xa;2. Build optimization&#xa;3. Security scan&#xa;4. CloudFormation&#xa;5. S3 sync&#xa;6. Cache invalidation&#xa;7. Health check&#xa;8. Rollback ready&#xa;&#xa;Zero-downtime&#xa;Automated rollback&#xa;Performance validation" style="text;html=1;strokeColor=#d6b656;fillColor=#fff2cc;align=left;verticalAlign=top;whiteSpace=wrap;rounded=1;fontSize=10;" vertex="1" parent="1">
          <mxGeometry x="540" y="320" width="160" height="180" as="geometry" />
        </mxCell>
        
        <mxCell id="17" value="AWS Region: us-east-1" style="rounded=1;whiteSpace=wrap;html=1;fillColor=#232F3E;strokeColor=#FF9900;fontColor=#FFFFFF;fontSize=12;" vertex="1" parent="1">
          <mxGeometry x="500" y="80" width="150" height="25" as="geometry" />
        </mxCell>
      </root>
    </mxGraphModel>
  </diagram>
</mxfile>
